<svg width="52" height="18" viewBox="0 0 52 18" fill="none" xmlns="http://www.w3.org/2000/svg">
<path d="M4.74268 7.89535C3.67464 8.11019 3.17725 8.41048 3.17725 8.84033C3.17725 9.27018 3.67464 9.57031 4.74268 9.78532C5.53532 9.94499 6.5638 10.0387 7.66536 10.0537V13.8971C7.66536 14.3003 8.29036 14.3003 8.29036 13.8971V10.0537C9.39193 10.0387 10.4204 9.94499 11.2131 9.78532C12.2811 9.57048 12.7785 9.27018 12.7785 8.84033C12.7785 8.41064 12.2811 8.11035 11.2131 7.89535C10.4204 7.73584 9.39193 7.64193 8.29036 7.62695V5.36019H11.8371C12.2401 5.36019 12.2401 4.73535 11.8371 4.73535H4.11865C3.71566 4.73535 3.71566 5.36019 4.11865 5.36019H7.66536V7.62695C6.5638 7.64193 5.53532 7.73568 4.74268 7.89535ZM5.06982 9.21126C4.3291 9.08024 3.98112 8.92773 3.8501 8.84033C3.98112 8.75277 4.3291 8.60042 5.06982 8.4694C5.79313 8.34131 6.70508 8.26546 7.66536 8.25195V9.42871C6.70508 9.41504 5.79313 9.33919 5.06982 9.21126ZM10.8859 8.4694C11.6266 8.60042 11.9746 8.75293 12.1056 8.84033C11.9746 8.92773 11.6266 9.08024 10.8859 9.21126C10.1626 9.33919 9.25065 9.41504 8.29036 9.42871V8.25195C9.25065 8.26546 10.1626 8.34131 10.8859 8.4694Z" fill="#50A98F"/>
<circle cx="8" cy="9" r="7.75" stroke="#50A98F" stroke-width="0.5"/>
<path d="M22.992 4.636V9.928C22.992 10.672 23.172 11.224 23.532 11.584C23.9 11.944 24.408 12.124 25.056 12.124C25.696 12.124 26.196 11.944 26.556 11.584C26.924 11.224 27.108 10.672 27.108 9.928V4.636H28.2V9.916C28.2 10.612 28.06 11.2 27.78 11.68C27.5 12.152 27.12 12.504 26.64 12.736C26.168 12.968 25.636 13.084 25.044 13.084C24.452 13.084 23.916 12.968 23.436 12.736C22.964 12.504 22.588 12.152 22.308 11.68C22.036 11.2 21.9 10.612 21.9 9.916V4.636H22.992ZM32.6737 13.084C32.1217 13.084 31.6257 12.988 31.1857 12.796C30.7537 12.596 30.4137 12.324 30.1657 11.98C29.9177 11.628 29.7897 11.224 29.7817 10.768H30.9457C30.9857 11.16 31.1457 11.492 31.4257 11.764C31.7137 12.028 32.1297 12.16 32.6737 12.16C33.1937 12.16 33.6017 12.032 33.8977 11.776C34.2017 11.512 34.3537 11.176 34.3537 10.768C34.3537 10.448 34.2657 10.188 34.0897 9.988C33.9137 9.788 33.6937 9.636 33.4297 9.532C33.1657 9.428 32.8097 9.316 32.3617 9.196C31.8097 9.052 31.3657 8.908 31.0297 8.764C30.7017 8.62 30.4177 8.396 30.1777 8.092C29.9457 7.78 29.8297 7.364 29.8297 6.844C29.8297 6.388 29.9457 5.984 30.1777 5.632C30.4097 5.28 30.7337 5.008 31.1497 4.816C31.5737 4.624 32.0577 4.528 32.6017 4.528C33.3857 4.528 34.0257 4.724 34.5217 5.116C35.0257 5.508 35.3097 6.028 35.3737 6.676H34.1737C34.1337 6.356 33.9657 6.076 33.6697 5.836C33.3737 5.588 32.9817 5.464 32.4937 5.464C32.0377 5.464 31.6657 5.584 31.3777 5.824C31.0897 6.056 30.9457 6.384 30.9457 6.808C30.9457 7.112 31.0297 7.36 31.1977 7.552C31.3737 7.744 31.5857 7.892 31.8337 7.996C32.0897 8.092 32.4457 8.204 32.9017 8.332C33.4537 8.484 33.8977 8.636 34.2337 8.788C34.5697 8.932 34.8577 9.16 35.0977 9.472C35.3377 9.776 35.4577 10.192 35.4577 10.72C35.4577 11.128 35.3497 11.512 35.1337 11.872C34.9177 12.232 34.5977 12.524 34.1737 12.748C33.7497 12.972 33.2497 13.084 32.6737 13.084ZM39.6686 4.636C40.5806 4.636 41.3686 4.808 42.0326 5.152C42.7046 5.488 43.2166 5.972 43.5686 6.604C43.9286 7.236 44.1086 7.98 44.1086 8.836C44.1086 9.692 43.9286 10.436 43.5686 11.068C43.2166 11.692 42.7046 12.172 42.0326 12.508C41.3686 12.836 40.5806 13 39.6686 13H37.0646V4.636H39.6686ZM39.6686 12.1C40.7486 12.1 41.5726 11.816 42.1406 11.248C42.7086 10.672 42.9926 9.868 42.9926 8.836C42.9926 7.796 42.7046 6.984 42.1286 6.4C41.5606 5.816 40.7406 5.524 39.6686 5.524H38.1566V12.1H39.6686ZM50.697 4.636V5.524H48.417V13H47.325V5.524H45.033V4.636H50.697Z" fill="black"/>
</svg>
