<svg width="52" height="18" viewBox="0 0 52 18" fill="none" xmlns="http://www.w3.org/2000/svg">
<path d="M13.6569 3.34313C12.1458 1.83216 10.1369 1 8 1C5.86312 1 3.85416 1.83216 2.34313 3.34313C0.832156 4.85416 0 6.86312 0 9C0 11.1369 0.832156 13.1458 2.34313 14.6569C3.85416 16.1678 5.86312 17 8 17C10.1369 17 12.1458 16.1678 13.6569 14.6569C15.1678 13.1458 16 11.1369 16 9C16 6.86312 15.1678 4.85416 13.6569 3.34313ZM8 16.0625C4.10572 16.0625 0.9375 12.8943 0.9375 9C0.9375 5.10572 4.10572 1.9375 8 1.9375C11.8943 1.9375 15.0625 5.10572 15.0625 9C15.0625 12.8943 11.8943 16.0625 8 16.0625Z" fill="#FE9C00"/>
<path d="M10.0571 8.627C10.3446 8.30475 10.5198 7.88025 10.5198 7.41544C10.5198 6.93019 10.3298 6.47297 9.98494 6.12803C9.64 5.78309 9.18279 5.59312 8.69757 5.59319H8.4685V4.6875H7.531V5.59316H5.46729V6.53066H6.23285V11.4693H5.46729V12.4068H7.531V13.3125H8.4685V12.4068H8.94763C10.0798 12.4068 11.001 11.4857 11.001 10.3534C11.001 9.80659 10.787 9.29138 10.3983 8.90263C10.2933 8.79756 10.1788 8.70575 10.0571 8.627ZM7.17035 6.53066H8.6976C8.93244 6.53066 9.15416 6.62306 9.322 6.79091C9.48985 6.95875 9.58229 7.18053 9.58225 7.41538C9.58225 7.89841 9.19316 8.292 8.71197 8.29978H7.17032V6.53066H7.17035ZM8.94763 11.4693H7.17035V9.23769L8.94766 9.23731C9.24394 9.23731 9.52372 9.35384 9.73535 9.5655C9.94697 9.77716 10.0635 10.0569 10.0635 10.3533C10.0635 10.9687 9.56291 11.4693 8.94763 11.4693Z" fill="#FE9C00"/>
<path d="M26.112 8.692C26.416 8.74 26.692 8.864 26.94 9.064C27.196 9.264 27.396 9.512 27.54 9.808C27.692 10.104 27.768 10.42 27.768 10.756C27.768 11.18 27.66 11.564 27.444 11.908C27.228 12.244 26.912 12.512 26.496 12.712C26.088 12.904 25.604 13 25.044 13H21.924V4.636H24.924C25.492 4.636 25.976 4.732 26.376 4.924C26.776 5.108 27.076 5.36 27.276 5.68C27.476 6 27.576 6.36 27.576 6.76C27.576 7.256 27.44 7.668 27.168 7.996C26.904 8.316 26.552 8.548 26.112 8.692ZM23.016 8.248H24.852C25.364 8.248 25.76 8.128 26.04 7.888C26.32 7.648 26.46 7.316 26.46 6.892C26.46 6.468 26.32 6.136 26.04 5.896C25.76 5.656 25.356 5.536 24.828 5.536H23.016V8.248ZM24.948 12.1C25.492 12.1 25.916 11.972 26.22 11.716C26.524 11.46 26.676 11.104 26.676 10.648C26.676 10.184 26.516 9.82 26.196 9.556C25.876 9.284 25.448 9.148 24.912 9.148H23.016V12.1H24.948ZM34.4314 4.636V5.524H32.1514V13H31.0594V5.524H28.7674V4.636H34.4314ZM35.3676 8.812C35.3676 7.996 35.5516 7.264 35.9196 6.616C36.2876 5.96 36.7876 5.448 37.4196 5.08C38.0596 4.712 38.7676 4.528 39.5436 4.528C40.4556 4.528 41.2516 4.748 41.9316 5.188C42.6116 5.628 43.1076 6.252 43.4196 7.06H42.1116C41.8796 6.556 41.5436 6.168 41.1036 5.896C40.6716 5.624 40.1516 5.488 39.5436 5.488C38.9596 5.488 38.4356 5.624 37.9716 5.896C37.5076 6.168 37.1436 6.556 36.8796 7.06C36.6156 7.556 36.4836 8.14 36.4836 8.812C36.4836 9.476 36.6156 10.06 36.8796 10.564C37.1436 11.06 37.5076 11.444 37.9716 11.716C38.4356 11.988 38.9596 12.124 39.5436 12.124C40.1516 12.124 40.6716 11.992 41.1036 11.728C41.5436 11.456 41.8796 11.068 42.1116 10.564H43.4196C43.1076 11.364 42.6116 11.984 41.9316 12.424C41.2516 12.856 40.4556 13.072 39.5436 13.072C38.7676 13.072 38.0596 12.892 37.4196 12.532C36.7876 12.164 36.2876 11.656 35.9196 11.008C35.5516 10.36 35.3676 9.628 35.3676 8.812Z" fill="black"/>
</svg>
