<svg width="16" height="25" viewBox="0 0 16 25" fill="none" xmlns="http://www.w3.org/2000/svg">
<mask id="path-1-outside-1" maskUnits="userSpaceOnUse" x="0" y="0.972961" width="16" height="24" fill="black">
<rect fill="white" y="0.972961" width="16" height="24"/>
<path fill-rule="evenodd" clip-rule="evenodd" d="M5.58333 4.55631H3.58333V6.55631V17.5563V19.5563H5.58333H9.25H11.25V17.5563V17.4324H9.25V17.5563H7.58333H7.25H5.58333V15.5563V8.55631V6.55631H7.25H7.58333H9.25V7.91891H11.25V6.55631V4.55631H9.25H5.58333ZM12.0811 7.91891V3.97296H3V21.3784H12.0811V17.4324H14.0811V21.3784V23.3784H12.0811H3H1V21.3784V3.97296V1.97296H3H12.0811H14.0811V3.97296V7.91891H12.0811Z"/>
</mask>
<path d="M3.58333 4.55631V3.55631H2.58333V4.55631H3.58333ZM3.58333 19.5563H2.58333V20.5563H3.58333V19.5563ZM11.25 19.5563V20.5563H12.25V19.5563H11.25ZM11.25 17.4324H12.25V16.4324H11.25V17.4324ZM9.25 17.4324V16.4324H8.25V17.4324H9.25ZM9.25 17.5563V18.5563H10.25V17.5563H9.25ZM5.58333 17.5563H4.58333V18.5563H5.58333V17.5563ZM5.58333 6.55631V5.55631H4.58333V6.55631H5.58333ZM9.25 6.55631H10.25V5.55631H9.25V6.55631ZM9.25 7.91891H8.25V8.91891H9.25V7.91891ZM11.25 7.91891V8.91891H12.25V7.91891H11.25ZM11.25 4.55631H12.25V3.55631H11.25V4.55631ZM12.0811 7.91891H11.0811V8.91891H12.0811V7.91891ZM12.0811 3.97296H13.0811V2.97296H12.0811V3.97296ZM3 3.97296V2.97296H2V3.97296H3ZM3 21.3784H2V22.3784H3V21.3784ZM12.0811 21.3784V22.3784H13.0811V21.3784H12.0811ZM12.0811 17.4324V16.4324H11.0811V17.4324H12.0811ZM14.0811 17.4324H15.0811V16.4324H14.0811V17.4324ZM14.0811 23.3784V24.3784H15.0811V23.3784H14.0811ZM1 23.3784H0V24.3784H1V23.3784ZM1 1.97296V0.972961H0V1.97296H1ZM14.0811 1.97296H15.0811V0.972961H14.0811V1.97296ZM14.0811 7.91891V8.91891H15.0811V7.91891H14.0811ZM3.58333 5.55631H5.58333V3.55631H3.58333V5.55631ZM4.58333 6.55631V4.55631H2.58333V6.55631H4.58333ZM4.58333 17.5563V6.55631H2.58333V17.5563H4.58333ZM4.58333 19.5563V17.5563H2.58333V19.5563H4.58333ZM5.58333 18.5563H3.58333V20.5563H5.58333V18.5563ZM9.25 18.5563H5.58333V20.5563H9.25V18.5563ZM11.25 18.5563H9.25V20.5563H11.25V18.5563ZM10.25 17.5563V19.5563H12.25V17.5563H10.25ZM10.25 17.4324V17.5563H12.25V17.4324H10.25ZM11.25 16.4324H9.25V18.4324H11.25V16.4324ZM8.25 17.4324V17.5563H10.25V17.4324H8.25ZM9.25 16.5563H7.58333V18.5563H9.25V16.5563ZM7.58333 16.5563H7.25V18.5563H7.58333V16.5563ZM7.25 16.5563H5.58333V18.5563H7.25V16.5563ZM6.58333 17.5563V15.5563H4.58333V17.5563H6.58333ZM6.58333 15.5563V8.55631H4.58333V15.5563H6.58333ZM6.58333 8.55631V6.55631H4.58333V8.55631H6.58333ZM5.58333 7.55631H7.25V5.55631H5.58333V7.55631ZM7.25 7.55631H7.58333V5.55631H7.25V7.55631ZM7.58333 7.55631H9.25V5.55631H7.58333V7.55631ZM8.25 6.55631V7.91891H10.25V6.55631H8.25ZM9.25 8.91891H11.25V6.91891H9.25V8.91891ZM10.25 6.55631V7.91891H12.25V6.55631H10.25ZM10.25 4.55631V6.55631H12.25V4.55631H10.25ZM9.25 5.55631H11.25V3.55631H9.25V5.55631ZM5.58333 5.55631H9.25V3.55631H5.58333V5.55631ZM13.0811 7.91891V3.97296H11.0811V7.91891H13.0811ZM12.0811 2.97296H3V4.97296H12.0811V2.97296ZM2 3.97296V21.3784H4V3.97296H2ZM3 22.3784H12.0811V20.3784H3V22.3784ZM13.0811 21.3784V17.4324H11.0811V21.3784H13.0811ZM14.0811 16.4324H12.0811V18.4324H14.0811V16.4324ZM13.0811 17.4324V21.3784H15.0811V17.4324H13.0811ZM13.0811 21.3784V23.3784H15.0811V21.3784H13.0811ZM14.0811 22.3784H12.0811V24.3784H14.0811V22.3784ZM12.0811 22.3784H3V24.3784H12.0811V22.3784ZM3 22.3784H1V24.3784H3V22.3784ZM2 23.3784V21.3784H0V23.3784H2ZM2 21.3784V3.97296H0V21.3784H2ZM2 3.97296V1.97296H0V3.97296H2ZM1 2.97296H3V0.972961H1V2.97296ZM3 2.97296H12.0811V0.972961H3V2.97296ZM12.0811 2.97296H14.0811V0.972961H12.0811V2.97296ZM13.0811 1.97296V3.97296H15.0811V1.97296H13.0811ZM13.0811 3.97296V7.91891H15.0811V3.97296H13.0811ZM12.0811 8.91891H14.0811V6.91891H12.0811V8.91891Z" fill="#495569" mask="url(#path-1-outside-1)"/>
</svg>
