<svg width="21" height="24" viewBox="0 0 21 24" fill="none" xmlns="http://www.w3.org/2000/svg">
<path d="M10.4065 17.6922C9.58144 17.6922 8.76913 17.5091 8.03954 17.1438C5.93148 16.0927 4.80212 14.0216 5.0916 11.7408C5.20581 10.8348 5.47757 9.53789 6.50058 8.73052C6.73492 8.54457 7.05492 8.48575 7.3444 8.57209C7.65258 8.66221 7.89283 8.8937 7.98735 9.1916C8.07104 9.4544 8.16754 9.67261 8.29258 9.8652C8.49443 8.23908 9.29787 6.20501 11.1027 4.64151C11.3567 4.4214 11.7141 4.35025 12.0361 4.4622C12.3649 4.57509 12.6032 4.85497 12.6574 5.19082C12.8484 6.36914 13.5022 7.30269 14.1953 8.29031C15.3424 9.92497 16.5269 11.6156 15.4734 14.3821C14.9643 15.7151 13.8468 16.789 12.4053 17.3279C11.7545 17.5717 11.0771 17.6922 10.4065 17.6922ZM7.04507 9.46863C6.55375 9.91453 6.218 10.6745 6.06834 11.8556C5.82711 13.7616 6.73295 15.4238 8.49147 16.3023C9.5647 16.8374 10.8605 16.8896 12.0479 16.4446C13.2255 16.0035 14.1363 15.1335 14.5469 14.0557C15.4281 11.7446 14.4789 10.3908 13.3781 8.8216C12.6554 7.79128 11.9081 6.72586 11.6826 5.33692C9.76163 7.07784 9.14821 9.44586 9.22993 10.9468C9.24076 11.1299 9.14033 11.3016 8.97295 11.3889C8.80852 11.4761 8.60274 11.4638 8.44914 11.3557C7.7156 10.8405 7.30895 10.294 7.04507 9.46863Z" fill="#FE9C00"/>
<path d="M10.4616 23.3846C10.4193 23.3846 10.377 23.3798 10.3366 23.3685C10.2391 23.3447 0.615479 20.804 0.615479 12.1697V4.41003C0.615479 4.21175 0.744463 4.03339 0.937448 3.96508L10.2913 0.64453C10.4006 0.605632 10.5217 0.605632 10.632 0.64453L19.9858 3.96508C20.1788 4.03339 20.3078 4.21175 20.3078 4.41003V12.1697C20.3078 20.805 10.6842 23.3447 10.5867 23.3694C10.5463 23.3798 10.504 23.3846 10.4616 23.3846ZM1.60009 4.74114V12.1697C1.60009 19.6475 9.32932 22.0991 10.4616 22.4178C11.5939 22.0991 19.3232 19.6475 19.3232 12.1697V4.74114L10.4616 1.59516L1.60009 4.74114Z" fill="#FE9C00"/>
<path d="M10.4065 17.6922C9.58144 17.6922 8.76913 17.5091 8.03954 17.1438C5.93148 16.0927 4.80212 14.0216 5.0916 11.7408C5.20581 10.8348 5.47757 9.53789 6.50058 8.73052C6.73492 8.54457 7.05492 8.48575 7.3444 8.57209C7.65258 8.66221 7.89283 8.8937 7.98735 9.1916C8.07104 9.4544 8.16754 9.67261 8.29258 9.8652C8.49443 8.23908 9.29787 6.20501 11.1027 4.64151C11.3567 4.4214 11.7141 4.35025 12.0361 4.4622C12.3649 4.57509 12.6032 4.85497 12.6574 5.19082C12.8484 6.36914 13.5022 7.30269 14.1953 8.29031C15.3424 9.92497 16.5269 11.6156 15.4734 14.3821C14.9643 15.7151 13.8468 16.789 12.4053 17.3279C11.7545 17.5717 11.0771 17.6922 10.4065 17.6922ZM7.04507 9.46863C6.55375 9.91453 6.218 10.6745 6.06834 11.8556C5.82711 13.7616 6.73295 15.4238 8.49147 16.3023C9.5647 16.8374 10.8605 16.8896 12.0479 16.4446C13.2255 16.0035 14.1363 15.1335 14.5469 14.0557C15.4281 11.7446 14.4789 10.3908 13.3781 8.8216C12.6554 7.79128 11.9081 6.72586 11.6826 5.33692C9.76163 7.07784 9.14821 9.44586 9.22993 10.9468C9.24076 11.1299 9.14033 11.3016 8.97295 11.3889C8.80852 11.4761 8.60274 11.4638 8.44914 11.3557C7.7156 10.8405 7.30895 10.294 7.04507 9.46863Z" stroke="#FE9C00" stroke-linecap="square" stroke-linejoin="bevel"/>
<path d="M10.4616 23.3846C10.4193 23.3846 10.377 23.3798 10.3366 23.3685C10.2391 23.3447 0.615479 20.804 0.615479 12.1697V4.41003C0.615479 4.21175 0.744463 4.03339 0.937448 3.96508L10.2913 0.64453C10.4006 0.605632 10.5217 0.605632 10.632 0.64453L19.9858 3.96508C20.1788 4.03339 20.3078 4.21175 20.3078 4.41003V12.1697C20.3078 20.805 10.6842 23.3447 10.5867 23.3694C10.5463 23.3798 10.504 23.3846 10.4616 23.3846ZM1.60009 4.74114V12.1697C1.60009 19.6475 9.32932 22.0991 10.4616 22.4178C11.5939 22.0991 19.3232 19.6475 19.3232 12.1697V4.74114L10.4616 1.59516L1.60009 4.74114Z" stroke="#FE9C00" stroke-linecap="square" stroke-linejoin="bevel"/>
</svg>
