<svg width="134" height="36" viewBox="0 0 134 36" fill="none" xmlns="http://www.w3.org/2000/svg">
<path d="M0.0916667 19.5248V0H15.04C16.1391 0 17.0917 0.397727 17.8977 1.19318C18.7038 1.97056 19.1068 2.91064 19.1068 4.01343V7.67434C19.1068 7.90936 19.0885 8.13534 19.0518 8.35228C19.0335 8.55114 18.9877 8.74097 18.9144 8.92175C19.1892 9.26525 19.4182 9.66297 19.6014 10.1149C19.7846 10.5669 19.8762 11.0189 19.8762 11.4708V15.5114C19.8762 16.6142 19.4732 17.5633 18.6671 18.3587C17.8611 19.1361 16.8994 19.5248 15.7819 19.5248H0.0916667ZM5.25763 15.2944H14.6553C15.2598 15.2944 15.5621 15.2944 15.5621 15.2944C15.5621 15.2944 15.5621 14.9961 15.5621 14.3995V12.6098C15.5621 12.0132 15.5621 11.7149 15.5621 11.7149C15.5621 11.7149 15.2598 11.7149 14.6553 11.7149H5.25763C4.6531 11.7149 4.35083 11.7149 4.35083 11.7149C4.35083 11.7149 4.35083 12.0132 4.35083 12.6098V14.3995C4.35083 14.9961 4.35083 15.2944 4.35083 15.2944C4.35083 15.2944 4.6531 15.2944 5.25763 15.2944ZM5.25763 7.48451H13.8859C14.4904 7.48451 14.7927 7.48451 14.7927 7.48451C14.7927 7.48451 14.7927 7.18621 14.7927 6.58962V5.12526C14.7927 4.52867 14.7927 4.23038 14.7927 4.23038C14.7927 4.23038 14.4904 4.23038 13.8859 4.23038H5.25763C4.6531 4.23038 4.35083 4.23038 4.35083 4.23038C4.35083 4.23038 4.35083 4.52867 4.35083 5.12526V6.58962C4.35083 7.18621 4.35083 7.48451 4.35083 7.48451C4.35083 7.48451 4.6531 7.48451 5.25763 7.48451Z" fill="#F6F6F6"/>
<path d="M22.9546 19.5248V0H37.9029C39.0021 0 39.9547 0.397727 40.7607 1.19318C41.5667 1.97056 41.9698 2.91064 41.9698 4.01343V7.67434C41.9698 7.90936 41.9514 8.13534 41.9148 8.35228C41.8965 8.55114 41.8507 8.74097 41.7774 8.92175C42.0522 9.26525 42.2812 9.66297 42.4644 10.1149C42.6476 10.5669 42.7392 11.0189 42.7392 11.4708V15.5114C42.7392 16.6142 42.3361 17.5633 41.5301 18.3587C40.7241 19.1361 39.7623 19.5248 38.6449 19.5248H22.9546ZM28.1206 15.2944H37.5182C38.1228 15.2944 38.425 15.2944 38.425 15.2944C38.425 15.2944 38.425 14.9961 38.425 14.3995V12.6098C38.425 12.0132 38.425 11.7149 38.425 11.7149C38.425 11.7149 38.1228 11.7149 37.5182 11.7149H28.1206C27.5161 11.7149 27.2138 11.7149 27.2138 11.7149C27.2138 11.7149 27.2138 12.0132 27.2138 12.6098V14.3995C27.2138 14.9961 27.2138 15.2944 27.2138 15.2944C27.2138 15.2944 27.5161 15.2944 28.1206 15.2944ZM28.1206 7.48451H36.7488C37.3534 7.48451 37.6556 7.48451 37.6556 7.48451C37.6556 7.48451 37.6556 7.18621 37.6556 6.58962V5.12526C37.6556 4.52867 37.6556 4.23038 37.6556 4.23038C37.6556 4.23038 37.3534 4.23038 36.7488 4.23038H28.1206C27.5161 4.23038 27.2138 4.23038 27.2138 4.23038C27.2138 4.23038 27.2138 4.52867 27.2138 5.12526V6.58962C27.2138 7.18621 27.2138 7.48451 27.2138 7.48451C27.2138 7.48451 27.5161 7.48451 28.1206 7.48451Z" fill="#F6F6F6"/>
<path d="M49.747 19.5248C48.6296 19.5248 47.6678 19.1361 46.8618 18.3587C46.0741 17.5633 45.6802 16.6142 45.6802 15.5114V4.01343C45.6802 2.91064 46.0741 1.97056 46.8618 1.19318C47.6678 0.397727 48.6296 0 49.747 0H61.3979C62.4971 0 63.4497 0.397727 64.2557 1.19318C65.0617 1.97056 65.4647 2.91064 65.4647 4.01343V15.5114C65.4647 16.6142 65.0617 17.5633 64.2557 18.3587C63.4497 19.1361 62.4971 19.5248 61.3979 19.5248H49.747ZM50.8462 15.2944H60.2438C60.8484 15.2944 61.1506 15.2944 61.1506 15.2944C61.1506 15.2944 61.1506 14.9961 61.1506 14.3995V5.12526C61.1506 4.52867 61.1506 4.23038 61.1506 4.23038C61.1506 4.23038 60.8484 4.23038 60.2438 4.23038H50.8462C50.2416 4.23038 49.9394 4.23038 49.9394 4.23038C49.9394 4.23038 49.9394 4.52867 49.9394 5.12526V14.3995C49.9394 14.9961 49.9394 15.2944 49.9394 15.2944C49.9394 15.2944 50.2416 15.2944 50.8462 15.2944Z" fill="#F6F6F6"/>
<path d="M68.4908 19.5248V0H72.8874L83.9612 13.0165V0H88.2753V19.5248H83.8788L72.75 6.45403V19.5248H68.4908Z" fill="#F6F6F6"/>
<path d="M91.4087 19.5248V0H107.099C108.216 0 109.178 0.397727 109.984 1.19318C110.79 1.97056 111.193 2.91064 111.193 4.01343V15.5114C111.193 16.6142 110.79 17.5633 109.984 18.3587C109.178 19.1361 108.216 19.5248 107.099 19.5248H91.4087ZM96.5747 15.2944H105.972C106.577 15.2944 106.879 15.2944 106.879 15.2944C106.879 15.2944 106.879 14.9961 106.879 14.3995V5.12526C106.879 4.52867 106.879 4.23038 106.879 4.23038C106.879 4.23038 106.577 4.23038 105.972 4.23038H96.5747C95.9702 4.23038 95.6679 4.23038 95.6679 4.23038C95.6679 4.23038 95.6679 4.52867 95.6679 5.12526V14.3995C95.6679 14.9961 95.6679 15.2944 95.6679 15.2944C95.6679 15.2944 95.9702 15.2944 96.5747 15.2944Z" fill="#F6F6F6"/>
<path d="M118.282 19.5248C117.165 19.5248 116.203 19.1361 115.397 18.3587C114.609 17.5633 114.215 16.6142 114.215 15.5114V13.6945H118.475V14.3995C118.475 14.9961 118.475 15.2944 118.475 15.2944C118.475 15.2944 118.777 15.2944 119.381 15.2944H128.779C129.384 15.2944 129.686 15.2944 129.686 15.2944C129.686 15.2944 129.686 14.9961 129.686 14.3995V12.7725C129.686 12.1759 129.686 11.8776 129.686 11.8776C129.686 11.8776 129.384 11.8776 128.779 11.8776H118.282C117.165 11.8776 116.203 11.4889 115.397 10.7115C114.609 9.91607 114.215 8.96695 114.215 7.86416V4.01343C114.215 2.91064 114.609 1.97056 115.397 1.19318C116.203 0.397727 117.165 0 118.282 0H129.933C131.032 0 131.985 0.397727 132.791 1.19318C133.597 1.97056 134 2.91064 134 4.01343V5.83033H129.686V5.12526C129.686 4.52867 129.686 4.23038 129.686 4.23038C129.686 4.23038 129.384 4.23038 128.779 4.23038H119.381C118.777 4.23038 118.475 4.23038 118.475 4.23038C118.475 4.23038 118.475 4.52867 118.475 5.12526V6.75233C118.475 7.34892 118.475 7.64722 118.475 7.64722C118.475 7.64722 118.777 7.64722 119.381 7.64722H129.933C131.032 7.64722 131.985 8.04495 132.791 8.8404C133.597 9.61778 134 10.5579 134 11.6607V15.5114C134 16.6142 133.597 17.5633 132.791 18.3587C131.985 19.1361 131.032 19.5248 129.933 19.5248H118.282Z" fill="#F6F6F6"/>
<path d="M5.21405 28.8206V29.5731H3.2562V35.9085H2.3185V29.5731H0.350351V28.8206H5.21405Z" fill="#F6F6F6"/>
<path d="M13.7051 30.2341C14.131 30.2341 14.5157 30.3256 14.8592 30.5086C15.2026 30.6849 15.4706 30.9527 15.6629 31.312C15.8621 31.6713 15.9617 32.1086 15.9617 32.6238V35.9085H15.0343V32.756C15.0343 32.2001 14.8935 31.7764 14.6119 31.4849C14.3302 31.1866 13.9455 31.0374 13.4578 31.0374C12.9631 31.0374 12.5681 31.19 12.2727 31.4951C11.9842 31.8001 11.84 32.2442 11.84 32.8272V35.9085H10.9023V28.3833H11.84V31.129C12.0254 30.8442 12.2796 30.6239 12.6025 30.468C12.9322 30.312 13.2998 30.2341 13.7051 30.2341Z" fill="#F6F6F6"/>
<path d="M27.1796 32.9086C27.1796 33.0848 27.1693 33.2713 27.1487 33.4679H22.6354C22.6697 34.017 22.8587 34.4475 23.2021 34.7594C23.5525 35.0644 23.975 35.217 24.4696 35.217C24.8749 35.217 25.2115 35.1255 25.4794 34.9424C25.7542 34.7526 25.9466 34.5017 26.0565 34.1899H27.0663C26.9152 34.7255 26.6129 35.1627 26.1595 35.5017C25.7061 35.8339 25.1428 36 24.4696 36C23.9338 36 23.4529 35.8814 23.027 35.6441C22.6079 35.4068 22.2782 35.0712 22.0377 34.6373C21.7973 34.1967 21.6771 33.6882 21.6771 33.112C21.6771 32.5357 21.7939 32.0306 22.0274 31.5968C22.261 31.1629 22.5873 30.8307 23.0063 30.6002C23.4323 30.3629 23.92 30.2442 24.4696 30.2442C25.0054 30.2442 25.4794 30.3595 25.8916 30.59C26.3038 30.8205 26.6198 31.1391 26.8396 31.5459C27.0663 31.9459 27.1796 32.4001 27.1796 32.9086ZM26.211 32.7154C26.211 32.3628 26.132 32.0611 25.974 31.8103C25.816 31.5527 25.5996 31.3595 25.3248 31.2307C25.0569 31.0951 24.7581 31.0273 24.4284 31.0273C23.9544 31.0273 23.5491 31.1764 23.2124 31.4747C22.8827 31.773 22.6938 32.1866 22.6457 32.7154H26.211Z" fill="#F6F6F6"/>
<path d="M44.0142 35.9085L42.3037 33.0103H41.1702V35.9085H40.2325V28.8206H42.551C43.0937 28.8206 43.5505 28.9121 43.9215 29.0951C44.2993 29.2782 44.5809 29.5256 44.7664 29.8375C44.9519 30.1493 45.0446 30.5053 45.0446 30.9052C45.0446 31.3934 44.9004 31.8239 44.6119 32.1967C44.3302 32.5696 43.9043 32.8171 43.3341 32.9391L45.1374 35.9085H44.0142ZM41.1702 32.2679H42.551C43.0593 32.2679 43.4406 32.1459 43.6948 31.9018C43.9489 31.651 44.076 31.3188 44.076 30.9052C44.076 30.4849 43.9489 30.1595 43.6948 29.929C43.4475 29.6985 43.0662 29.5833 42.551 29.5833H41.1702V32.2679Z" fill="#F6F6F6"/>
<path d="M56.1879 32.9086C56.1879 33.0848 56.1775 33.2713 56.1569 33.4679H51.6436C51.6779 34.017 51.8669 34.4475 52.2103 34.7594C52.5607 35.0644 52.9832 35.217 53.4778 35.217C53.8831 35.217 54.2197 35.1255 54.4876 34.9424C54.7624 34.7526 54.9548 34.5017 55.0647 34.1899H56.0745C55.9234 34.7255 55.6211 35.1627 55.1677 35.5017C54.7143 35.8339 54.151 36 53.4778 36C52.942 36 52.4611 35.8814 52.0352 35.6441C51.6161 35.4068 51.2864 35.0712 51.0459 34.6373C50.8055 34.1967 50.6853 33.6882 50.6853 33.112C50.6853 32.5357 50.8021 32.0306 51.0356 31.5968C51.2692 31.1629 51.5955 30.8307 52.0146 30.6002C52.4405 30.3629 52.9282 30.2442 53.4778 30.2442C54.0136 30.2442 54.4876 30.3595 54.8998 30.59C55.312 30.8205 55.628 31.1391 55.8478 31.5459C56.0745 31.9459 56.1879 32.4001 56.1879 32.9086ZM55.2192 32.7154C55.2192 32.3628 55.1402 32.0611 54.9822 31.8103C54.8242 31.5527 54.6078 31.3595 54.3331 31.2307C54.0651 31.0951 53.7663 31.0273 53.4366 31.0273C52.9626 31.0273 52.5573 31.1764 52.2206 31.4747C51.8909 31.773 51.702 32.1866 51.6539 32.7154H55.2192Z" fill="#F6F6F6"/>
<path d="M64.0617 35.0543L65.8134 30.3358H66.8129L64.5975 35.9085H63.5052L61.2898 30.3358H62.2996L64.0617 35.0543Z" fill="#F6F6F6"/>
<path d="M74.7324 36C74.2034 36 73.7225 35.8814 73.2898 35.6441C72.8638 35.4068 72.5272 35.0712 72.2799 34.6373C72.0395 34.1967 71.9193 33.6882 71.9193 33.112C71.9193 32.5425 72.0429 32.0408 72.2902 31.6069C72.5444 31.1663 72.8879 30.8307 73.3207 30.6002C73.7535 30.3629 74.2378 30.2442 74.7736 30.2442C75.3094 30.2442 75.7937 30.3629 76.2265 30.6002C76.6593 30.8307 76.9994 31.1629 77.2467 31.5968C77.5008 32.0306 77.6279 32.5357 77.6279 33.112C77.6279 33.6882 77.4974 34.1967 77.2364 34.6373C76.9822 35.0712 76.6353 35.4068 76.1956 35.6441C75.756 35.8814 75.2682 36 74.7324 36ZM74.7324 35.1865C75.069 35.1865 75.385 35.1085 75.6804 34.9526C75.9758 34.7966 76.2128 34.5628 76.3914 34.2509C76.5769 33.939 76.6696 33.5594 76.6696 33.112C76.6696 32.6645 76.5803 32.2849 76.4017 31.973C76.2231 31.6612 75.9895 31.4307 75.701 31.2815C75.4125 31.1256 75.0999 31.0476 74.7633 31.0476C74.4198 31.0476 74.1038 31.1256 73.8153 31.2815C73.5336 31.4307 73.3069 31.6612 73.1352 31.973C72.9635 32.2849 72.8776 32.6645 72.8776 33.112C72.8776 33.5662 72.96 33.9492 73.1249 34.2611C73.2966 34.5729 73.5233 34.8068 73.805 34.9627C74.0866 35.1119 74.3958 35.1865 74.7324 35.1865Z" fill="#F6F6F6"/>
<path d="M84.3325 28.3833V35.9085H83.3948V28.3833H84.3325Z" fill="#F6F6F6"/>
<path d="M95.4726 30.3358V35.9085H94.5349V35.0848C94.3562 35.3695 94.1055 35.5932 93.7826 35.7559C93.4666 35.9119 93.1163 35.9898 92.7316 35.9898C92.2919 35.9898 91.8969 35.9017 91.5466 35.7254C91.1962 35.5424 90.918 35.2712 90.7119 34.9119C90.5127 34.5526 90.4131 34.1153 90.4131 33.6001V30.3358H91.3405V33.478C91.3405 34.0272 91.4813 34.4509 91.763 34.7492C92.0446 35.0407 92.4293 35.1865 92.9171 35.1865C93.4185 35.1865 93.8135 35.0339 94.1021 34.7289C94.3906 34.4238 94.5349 33.9797 94.5349 33.3967V30.3358H95.4726Z" fill="#F6F6F6"/>
<path d="M102.734 31.0985V34.3831C102.734 34.6543 102.792 34.8475 102.909 34.9627C103.026 35.0712 103.228 35.1255 103.517 35.1255H104.207V35.9085H103.362C102.84 35.9085 102.448 35.7898 102.187 35.5526C101.926 35.3153 101.796 34.9255 101.796 34.3831V31.0985H101.064V30.3358H101.796V28.9324H102.734V30.3358H104.207V31.0985H102.734Z" fill="#F6F6F6"/>
<path d="M110.361 29.4307C110.183 29.4307 110.032 29.3697 109.908 29.2477C109.784 29.1256 109.723 28.9765 109.723 28.8002C109.723 28.624 109.784 28.4748 109.908 28.3528C110.032 28.2308 110.183 28.1697 110.361 28.1697C110.533 28.1697 110.678 28.2308 110.794 28.3528C110.918 28.4748 110.98 28.624 110.98 28.8002C110.98 28.9765 110.918 29.1256 110.794 29.2477C110.678 29.3697 110.533 29.4307 110.361 29.4307ZM110.815 30.3358V35.9085H109.877V30.3358H110.815Z" fill="#F6F6F6"/>
<path d="M119.41 36C118.881 36 118.4 35.8814 117.967 35.6441C117.541 35.4068 117.205 35.0712 116.957 34.6373C116.717 34.1967 116.597 33.6882 116.597 33.112C116.597 32.5425 116.72 32.0408 116.968 31.6069C117.222 31.1663 117.565 30.8307 117.998 30.6002C118.431 30.3629 118.915 30.2442 119.451 30.2442C119.987 30.2442 120.471 30.3629 120.904 30.6002C121.337 30.8307 121.677 31.1629 121.924 31.5968C122.178 32.0306 122.305 32.5357 122.305 33.112C122.305 33.6882 122.175 34.1967 121.914 34.6373C121.66 35.0712 121.313 35.4068 120.873 35.6441C120.433 35.8814 119.946 36 119.41 36ZM119.41 35.1865C119.746 35.1865 120.062 35.1085 120.358 34.9526C120.653 34.7966 120.89 34.5628 121.069 34.2509C121.254 33.939 121.347 33.5594 121.347 33.112C121.347 32.6645 121.258 32.2849 121.079 31.973C120.9 31.6612 120.667 31.4307 120.378 31.2815C120.09 31.1256 119.777 31.0476 119.441 31.0476C119.097 31.0476 118.781 31.1256 118.493 31.2815C118.211 31.4307 117.984 31.6612 117.813 31.973C117.641 32.2849 117.555 32.6645 117.555 33.112C117.555 33.5662 117.637 33.9492 117.802 34.2611C117.974 34.5729 118.201 34.8068 118.482 34.9627C118.764 35.1119 119.073 35.1865 119.41 35.1865Z" fill="#F6F6F6"/>
<path d="M130.823 30.2341C131.51 30.2341 132.067 30.4409 132.493 30.8544C132.919 31.2612 133.132 31.851 133.132 32.6238V35.9085H132.204V32.756C132.204 32.2001 132.063 31.7764 131.782 31.4849C131.5 31.1866 131.115 31.0374 130.628 31.0374C130.133 31.0374 129.738 31.19 129.443 31.4951C129.154 31.8001 129.01 32.2442 129.01 32.8272V35.9085H128.072V30.3358H129.01V31.129C129.195 30.8442 129.446 30.6239 129.762 30.468C130.085 30.312 130.439 30.2341 130.823 30.2341Z" fill="#F6F6F6"/>
<path d="M0 24.0444H133.958V24.6094H0V24.0444Z" fill="#F6F6F6"/>
</svg>
