<svg width="14" height="14" viewBox="0 0 14 14" fill="none" xmlns="http://www.w3.org/2000/svg">
<path d="M7.01063 2.36542e-05C4.62781 -0.00622635 2.53094 1.22659 1.3325 3.08909C1.27938 3.1719 1.33875 3.28127 1.43719 3.28127H2.53562C2.61063 3.28127 2.68094 3.24846 2.72781 3.19065C2.83719 3.05784 2.95438 2.92971 3.07781 2.80784C3.58719 2.30002 4.17938 1.90002 4.83875 1.6219C5.52 1.3344 6.245 1.18752 6.99344 1.18752C7.74187 1.18752 8.46688 1.33284 9.14812 1.6219C9.8075 1.90002 10.3997 2.30002 10.9091 2.80784C11.4184 3.31565 11.8169 3.90784 12.0966 4.56565C12.3856 5.2469 12.5309 5.97034 12.5309 6.71877C12.5309 7.46721 12.3841 8.19065 12.0966 8.8719C11.8184 9.52971 11.4184 10.1219 10.9091 10.6297C10.3997 11.1375 9.8075 11.5375 9.14812 11.8156C8.46634 12.1036 7.73354 12.2513 6.99344 12.25C6.245 12.25 5.52 12.1031 4.83875 11.8156C4.18067 11.5378 3.58267 11.1351 3.07781 10.6297C2.95438 10.5063 2.83875 10.3781 2.72781 10.2469C2.68094 10.1891 2.60906 10.1563 2.53562 10.1563H1.43719C1.33875 10.1563 1.27781 10.2656 1.3325 10.3485C2.52938 12.2063 4.61687 13.4375 6.99344 13.4375C10.6841 13.4375 13.6809 10.4672 13.7184 6.78752C13.7559 3.04846 10.7544 0.00939865 7.01063 2.36542e-05ZM5.03125 8.46877V7.28127H0.125C0.05625 7.28127 0 7.22502 0 7.15627V6.28127C0 6.21252 0.05625 6.15627 0.125 6.15627H5.03125V4.96877C5.03125 4.86409 5.15312 4.80471 5.23438 4.87034L7.45156 6.62034C7.4665 6.63203 7.47859 6.64697 7.4869 6.66402C7.4952 6.68108 7.49952 6.6998 7.49952 6.71877C7.49952 6.73775 7.4952 6.75647 7.4869 6.77352C7.47859 6.79058 7.4665 6.80552 7.45156 6.81721L5.23438 8.56721C5.15312 8.63127 5.03125 8.57346 5.03125 8.46877Z" fill="#F6F6F6"/>
</svg>
