<svg width="16" height="24" viewBox="0 0 16 24" fill="none" xmlns="http://www.w3.org/2000/svg">
<path d="M12.4828 8.88431C14.1309 7.54045 15.8351 6.15088 15.8351 3.58763V0H0V3.58763C0 6.15088 1.70415 7.54045 3.35223 8.88431C4.14814 9.53329 4.97117 10.2044 5.60091 11.0093C5.65633 11.0815 5.77791 11.4312 5.77791 12C5.77791 12.5689 5.65633 12.9185 5.60096 12.9907C4.97117 13.7957 4.14819 14.4668 3.35223 15.1157C1.70415 16.4595 0 17.8491 0 20.4124V24H15.8351V20.4124C15.8351 17.8491 14.1309 16.4595 12.4828 15.1157C11.6869 14.4667 10.8639 13.7956 10.2341 12.9907C10.1787 12.9185 10.0571 12.5688 10.0571 12C10.0571 11.4311 10.1787 11.0815 10.2341 11.0093C10.8639 10.2044 11.6869 9.53329 12.4828 8.88431ZM9.06487 13.9055C9.797 14.8412 10.6854 15.5657 11.5446 16.2663C13.0502 17.4939 14.3505 18.5542 14.3505 20.4124V22.5155H1.48454V20.4124C1.48454 18.5541 2.78479 17.4939 4.29036 16.2663C5.14961 15.5657 6.03805 14.8412 6.77013 13.9055C7.42501 13.0685 7.42501 10.9315 6.77013 10.0946C6.038 9.15884 5.14956 8.43439 4.29031 7.73379C2.78479 6.50613 1.48454 5.44587 1.48454 3.58763V1.48454H14.3505V3.58763C14.3505 5.44587 13.0503 6.50613 11.5446 7.73379C10.6854 8.43439 9.797 9.15884 9.06487 10.0946C8.41005 10.9315 8.41005 13.0685 9.06487 13.9055Z" fill="#495569"/>
</svg>
