<svg width="20" height="22" viewBox="0 0 20 22" fill="none" xmlns="http://www.w3.org/2000/svg">
<path d="M17.9332 5.69707H15.6818C16.2086 4.91281 16.4115 3.95511 16.248 3.02458C16.0845 2.09406 15.5673 1.2629 14.8046 0.705209C14.042 0.147519 13.0932 -0.0934358 12.1569 0.0328172C11.2206 0.15907 10.3694 0.642736 9.78176 1.3825C9.19409 0.642736 8.34295 0.15907 7.40665 0.0328172C6.47034 -0.0934358 5.5215 0.147519 4.75887 0.705209C3.99625 1.2629 3.47901 2.09406 3.31551 3.02458C3.152 3.95511 3.35491 4.91281 3.88173 5.69707H1.63029C1.19804 5.6975 0.783624 5.8694 0.477979 6.17505C0.172333 6.4807 0.000431601 6.89512 0 7.32736V10.5879C0.000431601 11.0202 0.172333 11.4346 0.477979 11.7403C0.783624 12.0459 1.19804 12.2178 1.63029 12.2182V20.3697C1.63072 20.802 1.80263 21.2164 2.10827 21.522C2.41392 21.8277 2.82834 21.9996 3.26059 22H16.3029C16.7352 21.9996 17.1496 21.8277 17.4552 21.522C17.7609 21.2164 17.9328 20.802 17.9332 20.3697V12.2182C18.3655 12.2178 18.7799 12.0459 19.0855 11.7403C19.3912 11.4346 19.5631 11.0202 19.5635 10.5879V7.32736C19.5631 6.89512 19.3912 6.4807 19.0855 6.17505C18.7799 5.8694 18.3655 5.6975 17.9332 5.69707ZM10.5969 3.65921C10.5969 3.25615 10.7164 2.86215 10.9403 2.52703C11.1643 2.1919 11.4825 1.9307 11.8549 1.77646C12.2273 1.62222 12.637 1.58187 13.0323 1.6605C13.4276 1.73913 13.7908 1.93322 14.0758 2.21822C14.3608 2.50322 14.5548 2.86633 14.6335 3.26164C14.7121 3.65695 14.6718 4.06669 14.5175 4.43906C14.3633 4.81144 14.1021 5.12971 13.7669 5.35363C13.4318 5.57755 13.0378 5.69707 12.6348 5.69707H10.5969V3.65921ZM6.92874 1.62134C7.46902 1.62199 7.98699 1.8369 8.36902 2.21893C8.75105 2.60097 8.96596 3.11893 8.96661 3.65921V5.69707H6.92874C6.38827 5.69707 5.86993 5.48237 5.48776 5.10019C5.10558 4.71802 4.89088 4.19968 4.89088 3.65921C4.89088 3.11873 5.10558 2.60039 5.48776 2.21822C5.86993 1.83604 6.38827 1.62134 6.92874 1.62134ZM1.63029 7.32736H8.96661V10.5879H1.63029V7.32736ZM3.26059 12.2182H8.96661V20.3697H3.26059V12.2182ZM16.3037 20.3697H10.5969V12.2182H16.3029L16.3037 20.3697ZM10.5969 10.5879V7.32736H17.9332L17.934 10.5879H10.5969Z" fill="#495569"/>
</svg>
