<svg width="14" height="14" viewBox="0 0 14 14" fill="none" xmlns="http://www.w3.org/2000/svg">
<path d="M0.527906 4.9064C0.823504 3.99367 1.3091 3.1539 1.95271 2.4424C2.0059 2.38362 2.07537 2.34196 2.15229 2.32273C2.22921 2.3035 2.3101 2.30757 2.38471 2.3344L3.91911 2.8832C4.02834 2.92221 4.14475 2.937 4.26027 2.92654C4.37578 2.91608 4.48764 2.88063 4.5881 2.82264C4.68855 2.76465 4.77519 2.68551 4.84202 2.59071C4.90884 2.49591 4.95426 2.3877 4.97511 2.2736L5.26711 0.668804C5.28125 0.590683 5.31832 0.518537 5.37359 0.461552C5.42887 0.404566 5.49985 0.365318 5.57751 0.348804C6.51499 0.149113 7.48402 0.149113 8.42151 0.348804C8.49916 0.365318 8.57014 0.404566 8.62542 0.461552C8.6807 0.518537 8.71776 0.590683 8.73191 0.668804L9.02471 2.2736C9.04556 2.3877 9.09097 2.49591 9.15779 2.59071C9.22462 2.68551 9.31126 2.76465 9.41172 2.82264C9.51217 2.88063 9.62403 2.91608 9.73955 2.92654C9.85506 2.937 9.97147 2.92221 10.0807 2.8832L11.6159 2.3344C11.6905 2.30783 11.7713 2.30399 11.848 2.32336C11.9248 2.34272 11.9941 2.38443 12.0471 2.4432C12.6903 3.15454 13.1756 3.99402 13.4711 4.9064C13.4955 4.98177 13.497 5.06268 13.4753 5.13887C13.4537 5.21507 13.4099 5.28312 13.3495 5.3344L12.1055 6.3904C12.0171 6.46551 11.9461 6.55892 11.8975 6.66418C11.8488 6.76944 11.8236 6.88403 11.8236 7C11.8236 7.11598 11.8488 7.23056 11.8975 7.33582C11.9461 7.44109 12.0171 7.5345 12.1055 7.6096L13.3495 8.6656C13.4099 8.71689 13.4537 8.78494 13.4753 8.86114C13.497 8.93733 13.4955 9.01824 13.4711 9.0936C13.1757 10.0063 12.6904 10.846 12.0471 11.5576C11.9939 11.6164 11.9244 11.658 11.8475 11.6773C11.7706 11.6965 11.6897 11.6924 11.6151 11.6656L10.0807 11.1168C9.97147 11.0778 9.85506 11.063 9.73955 11.0735C9.62403 11.0839 9.51217 11.1194 9.41172 11.1774C9.31126 11.2354 9.22462 11.3145 9.15779 11.4093C9.09097 11.5041 9.04556 11.6123 9.02471 11.7264L8.73111 13.332C8.71688 13.4099 8.67986 13.4818 8.62475 13.5386C8.56964 13.5954 8.4989 13.6346 8.42151 13.6512C7.48403 13.8509 6.51499 13.8509 5.57751 13.6512C5.49985 13.6347 5.42887 13.5954 5.37359 13.5385C5.31832 13.4815 5.28125 13.4093 5.26711 13.3312L4.97511 11.7264C4.95426 11.6123 4.90884 11.5041 4.84202 11.4093C4.77519 11.3145 4.68855 11.2354 4.5881 11.1774C4.48764 11.1194 4.37578 11.0839 4.26027 11.0735C4.14475 11.063 4.02834 11.0778 3.91911 11.1168L2.38391 11.6656C2.30933 11.6922 2.22855 11.696 2.15179 11.6767C2.07503 11.6573 2.00575 11.6156 1.95271 11.5568C1.30946 10.8455 0.824147 10.006 0.528706 9.0936C0.504319 9.01824 0.502857 8.93733 0.524505 8.86114C0.546154 8.78494 0.589937 8.71689 0.650306 8.6656L1.89431 7.6096C1.98268 7.5345 2.05366 7.44109 2.10235 7.33582C2.15103 7.23056 2.17624 7.11598 2.17624 7C2.17624 6.88403 2.15103 6.76944 2.10235 6.66418C2.05366 6.55892 1.98268 6.46551 1.89431 6.3904L0.650306 5.3344C0.589937 5.28312 0.546154 5.21507 0.524505 5.13887C0.502857 5.06268 0.504319 4.98177 0.528706 4.9064H0.527906ZM1.37671 4.9016L2.41191 5.78C2.58892 5.93021 2.73114 6.11713 2.82867 6.3278C2.9262 6.53848 2.97673 6.76785 2.97673 7C2.97673 7.23216 2.9262 7.46153 2.82867 7.67221C2.73114 7.88288 2.58892 8.0698 2.41191 8.22L1.37671 9.0984C1.61031 9.724 1.94791 10.3064 2.37271 10.82L3.64951 10.364C3.86803 10.286 4.10091 10.2564 4.33199 10.2774C4.56307 10.2984 4.78683 10.3693 4.98775 10.4854C5.18866 10.6015 5.36194 10.7598 5.49554 10.9495C5.62915 11.1392 5.71991 11.3557 5.76151 11.584L6.00551 12.9184C6.66363 13.0281 7.33538 13.0281 7.99351 12.9184L8.23751 11.5824C8.27921 11.3542 8.37003 11.1378 8.50368 10.9482C8.63733 10.7586 8.81062 10.6003 9.01152 10.4843C9.21243 10.3684 9.43615 10.2975 9.66719 10.2765C9.89822 10.2556 10.131 10.2852 10.3495 10.3632L11.6271 10.82C12.0527 10.3056 12.3893 9.72374 12.6231 9.0984L11.5879 8.22C11.4106 8.06996 11.2682 7.88308 11.1705 7.67239C11.0728 7.4617 11.0222 7.23224 11.0222 7C11.0222 6.76776 11.0728 6.53831 11.1705 6.32762C11.2682 6.11693 11.4106 5.93005 11.5879 5.78L12.6231 4.9016C12.3893 4.27626 12.0527 3.69438 11.6271 3.18L10.3503 3.636C10.1318 3.71402 9.89902 3.74359 9.66799 3.72267C9.43695 3.70176 9.21323 3.63085 9.01232 3.51488C8.81142 3.3989 8.63813 3.24062 8.50448 3.05101C8.37083 2.86141 8.28001 2.645 8.23831 2.4168L7.99351 1.0816C7.33538 0.971874 6.66363 0.971874 6.00551 1.0816L5.76231 2.4168C5.72071 2.64507 5.62995 2.86157 5.49634 3.05127C5.36273 3.24097 5.18946 3.39934 4.98855 3.5154C4.78763 3.63146 4.56387 3.70243 4.33279 3.7234C4.10171 3.74436 3.86883 3.71481 3.65031 3.6368L2.37271 3.18C1.94713 3.69439 1.61049 4.27626 1.37671 4.9016ZM4.99991 7C4.99991 6.46957 5.21062 5.96086 5.58569 5.58579C5.96077 5.21072 6.46947 5 6.99991 5C7.53034 5 8.03905 5.21072 8.41412 5.58579C8.78919 5.96086 8.99991 6.46957 8.99991 7C8.99991 7.53044 8.78919 8.03914 8.41412 8.41422C8.03905 8.78929 7.53034 9 6.99991 9C6.46947 9 5.96077 8.78929 5.58569 8.41422C5.21062 8.03914 4.99991 7.53044 4.99991 7ZM5.79991 7C5.79991 7.31826 5.92633 7.62349 6.15138 7.84853C6.37642 8.07358 6.68165 8.2 6.99991 8.2C7.31817 8.2 7.62339 8.07358 7.84843 7.84853C8.07348 7.62349 8.19991 7.31826 8.19991 7C8.19991 6.68174 8.07348 6.37652 7.84843 6.15148C7.62339 5.92643 7.31817 5.8 6.99991 5.8C6.68165 5.8 6.37642 5.92643 6.15138 6.15148C5.92633 6.37652 5.79991 6.68174 5.79991 7Z" fill="#F6F6F6"/>
</svg>
