<svg width="25" height="21" viewBox="0 0 25 21" fill="none" xmlns="http://www.w3.org/2000/svg">
<path d="M21.3388 4.63647C18.9778 2.27637 15.8388 0.976562 12.5 0.976562C9.16118 0.976562 6.02217 2.27637 3.66123 4.63647C1.30024 6.99673 0 10.1349 0 13.4728C0 15.9806 0.740625 18.4 2.14175 20.4694L3.75898 19.3744C2.57759 17.6295 1.95312 15.5888 1.95312 13.4728C1.95312 7.65928 6.68442 2.92969 12.5 2.92969C18.3156 2.92969 23.0469 7.65928 23.0469 13.4728C23.0469 15.5888 22.4224 17.6295 21.241 19.3744L22.8583 20.4694C24.2594 18.4 25 15.9806 25 13.4728C25 10.1349 23.6998 6.99673 21.3388 4.63647Z" fill="#495569"/>
</svg>
